<svg width="30" height="42" viewBox="0 0 30 42" fill="none" xmlns="http://www.w3.org/2000/svg">
<path d="M15.1793 41.9999L13.8318 40.3267C11.2476 37.108 0.748141 22.5484 0.748141 15.4243C0.666804 13.5903 0.941767 11.7581 1.55733 10.0321C2.17289 8.30619 3.11699 6.72036 4.33572 5.36522C5.55444 4.01007 7.02393 2.91215 8.66025 2.13415C10.2966 1.35615 12.0677 0.913314 13.8724 0.830924C14.2834 0.810916 14.6932 0.810916 15.1018 0.830924C16.9065 0.749301 18.7094 1.02972 20.4075 1.65616C22.1056 2.28261 23.6656 3.24281 24.9985 4.48194C26.3313 5.72107 27.411 7.21486 28.1757 8.87801C28.9404 10.5412 29.3753 12.3411 29.4554 14.175C29.4727 14.5902 29.4727 15.0041 29.4554 15.4168C29.4554 21.4192 22.7881 31.4282 16.9772 39.4827L15.1793 41.9999ZM15.1018 4.16976C13.6216 4.06842 12.1372 4.29006 10.7482 4.81981C9.3593 5.34955 8.09797 6.17515 7.04894 7.24115C5.9999 8.30715 5.18746 9.58888 4.66614 11.0003C4.14483 12.4117 3.92671 13.9201 4.02644 15.4243C4.02644 20.1812 10.9781 31.0343 15.0538 36.5077C18.5056 31.6983 26.1698 20.6876 26.1698 15.4243C26.2695 13.9201 26.0514 12.4117 25.5301 11.0003C25.0088 9.58888 24.1963 8.30715 23.1473 7.24115C22.0982 6.17515 20.8369 5.34955 19.448 4.81981C18.059 4.29006 16.5746 4.06842 15.0944 4.16976H15.1018Z" fill="#7D7C7C"/>
</svg>
