<svg width="51" height="69" viewBox="0 0 51 69" fill="none" xmlns="http://www.w3.org/2000/svg">
<path d="M48.0001 36.6668L12.4201 36.6668L23.3101 22.1334C23.8193 21.4527 24.0643 20.5751 23.9912 19.6937C23.918 18.8123 23.5328 17.9992 22.9201 17.4334C22.3075 16.8676 21.5176 16.5954 20.7243 16.6767C19.9311 16.758 19.1993 17.186 18.6901 17.8668L3.69012 37.8668C3.5892 38.0259 3.49896 38.193 3.42012 38.3668C3.42012 38.5334 3.42012 38.6334 3.21012 38.8001C3.07414 39.1823 3.00295 39.5891 3.00012 40.0001C3.00295 40.4111 3.07414 40.8179 3.21012 41.2001C3.21012 41.3668 3.21012 41.4668 3.42012 41.6334C3.49896 41.8072 3.5892 41.9744 3.69012 42.1334L18.6901 62.1334C18.9722 62.5097 19.3254 62.8123 19.7247 63.0197C20.1239 63.2271 20.5594 63.3342 21.0001 63.3334C21.7011 63.335 22.3804 63.0637 22.9201 62.5668C23.2239 62.2869 23.475 61.9433 23.6591 61.5554C23.8431 61.1676 23.9565 60.7433 23.9927 60.3067C24.029 59.8701 23.9873 59.4299 23.8702 59.0112C23.753 58.5925 23.5627 58.2036 23.3101 57.8668L12.4201 43.3334L48.0001 43.3334C48.7958 43.3334 49.5588 42.9823 50.1214 42.3571C50.6841 41.732 51.0001 40.8842 51.0001 40.0001C51.0001 39.1161 50.6841 38.2682 50.1214 37.6431C49.5588 37.018 48.7958 36.6668 48.0001 36.6668Z" fill="#231F20"/>
</svg>
