<svg width="375" height="61" viewBox="0 0 375 61" fill="none" xmlns="http://www.w3.org/2000/svg">
<path d="M143.667 22.7569L119.7 20.8284L110.333 0.237305L100.967 20.8595L77 22.7569L95.2 37.4692L89.7333 59.3356L110.333 47.7337L130.933 59.3356L125.5 37.4692L143.667 22.7569ZM110.333 41.9171L97.8 48.9778L101.133 35.6652L90.0667 26.7071L104.667 25.5251L110.333 12.9901L116.033 25.5563L130.633 26.7382L119.567 35.6963L122.9 49.0089L110.333 41.9171Z" fill="black"/>
<path d="M220.667 22.7569L196.7 20.8284L187.333 0.237305L177.967 20.8595L154 22.7569L172.2 37.4692L166.733 59.3356L187.333 47.7337L207.933 59.3356L202.5 37.4692L220.667 22.7569ZM187.333 41.9171L174.8 48.9778L178.133 35.6652L167.067 26.7071L181.667 25.5251L187.333 12.9901L193.033 25.5563L207.633 26.7382L196.567 35.6963L199.9 49.0089L187.333 41.9171Z" fill="black"/>
<path d="M297.667 22.7569L273.7 20.8284L264.333 0.237305L254.967 20.8595L231 22.7569L249.2 37.4692L243.733 59.3356L264.333 47.7337L284.933 59.3356L279.5 37.4692L297.667 22.7569ZM264.333 41.9171L251.8 48.9778L255.133 35.6652L244.067 26.7071L258.667 25.5251L264.333 12.9901L270.033 25.5563L284.633 26.7382L273.567 35.6963L276.9 49.0089L264.333 41.9171Z" fill="black"/>
<path d="M374.667 22.7569L350.7 20.8284L341.333 0.237305L331.967 20.8595L308 22.7569L326.2 37.4692L320.733 59.3356L341.333 47.7337L361.933 59.3356L356.5 37.4692L374.667 22.7569ZM341.333 41.9171L328.8 48.9778L332.133 35.6652L321.067 26.7071L335.667 25.5251L341.333 12.9901L347.033 25.5563L361.633 26.7382L350.567 35.6963L353.9 49.0089L341.333 41.9171Z" fill="black"/>
<path d="M66.6667 23.69L42.7 21.7615L33.3333 1.17041L23.9667 21.7926L0 23.69L18.2 38.4023L12.7333 60.2687L33.3333 48.6668L53.9333 60.2687L48.5 38.4023L66.6667 23.69ZM33.3333 42.8502L20.8 49.9109L24.1333 36.5983L13.0667 27.6402L27.6667 26.4583L33.3333 13.9232L39.0333 26.4894L53.6333 27.6713L42.5667 36.6294L45.9 49.942L33.3333 42.8502Z" fill="black"/>
</svg>
