<svg width="46" height="45" viewBox="0 0 46 45" fill="none" xmlns="http://www.w3.org/2000/svg">
<path d="M0.248901 0.352051V34.5681C13.5903 34.5681 22.7172 44.3441 22.7172 44.3441C22.7172 44.3441 32.0063 34.5681 45.2658 34.5681V0.352051C28.896 0.352051 22.7172 8.7819 22.7172 8.7819C22.7172 8.7819 16.6187 0.352051 0.248901 0.352051ZM4.34134 5.24005C9.23304 5.08706 16.8356 7.20258 20.7111 11.8276L22.7573 15.0161L24.8036 11.8276C28.7384 7.2847 36.2661 5.18042 41.1733 5.24005V29.68C32.9884 29.68 27.4456 33.8661 22.7172 38.3866C18.0535 33.851 12.5262 29.68 4.34134 29.68V5.24005ZM8.43379 11.6076V12.4953C11.8035 13.3204 17.0267 15.8524 20.7111 18.2426V17.1257C16.9575 14.7888 11.8064 12.3765 8.43379 11.6076ZM37.0809 11.6076C33.7083 12.3765 28.5572 14.7888 24.8036 17.1257V18.2426C28.488 15.8524 33.7112 13.3204 37.0809 12.4953V11.6076ZM8.43379 16.1046V16.9923C11.7965 17.7445 17.0218 20.2105 20.7111 22.5294V21.5748C16.9571 19.2505 11.8051 16.85 8.43379 16.1046ZM37.0809 16.1046C33.7095 16.85 28.5576 19.2505 24.8036 21.5748V22.5294C28.4929 20.2105 33.7181 17.7445 37.0809 16.9923V16.1046ZM8.43379 20.4769V21.3646C11.7961 22.1208 17.0214 24.5858 20.7111 26.9017V25.9471C16.9563 23.6258 11.8043 21.2272 8.43379 20.4769ZM37.0809 20.4769C33.7104 21.2272 28.5584 23.6258 24.8036 25.9471V26.9017C28.4933 24.5858 33.7185 22.1208 37.0809 21.3646V20.4769ZM8.43379 24.7921V25.6797C11.79 26.366 17.0156 28.7562 20.7111 30.9974V30.2622C16.9563 27.9424 11.8043 25.5438 8.43379 24.7921ZM37.0809 24.7921C33.7104 25.5438 28.5584 27.9424 24.8036 30.2622V30.9974C28.499 28.7562 33.7247 26.366 37.0809 25.6797V24.7921Z" fill="#7D7C7C"/>
</svg>
