<svg width="35" height="34" viewBox="0 0 35 34" fill="none" xmlns="http://www.w3.org/2000/svg">
<path d="M33.75 5.98665L23.1 2.54876H23.025C22.8622 2.46739 22.683 2.42177 22.5 2.41513C22.3121 2.41484 22.1272 2.46081 21.9625 2.54876H21.8625L18.3 3.86074C18.0126 3.14594 17.5885 2.49053 17.05 1.92921C16.3954 1.24767 15.5881 0.721748 14.6907 0.392169C13.7933 0.0625892 12.8298 -0.0617958 11.875 0.0286489C10.9202 0.119094 9.99959 0.42194 9.18456 0.913729C8.36952 1.40552 7.68192 2.07305 7.17502 2.86461C6.9324 3.24657 6.7353 3.65412 6.58752 4.07941L2.42502 2.73098C2.14789 2.64009 1.85243 2.61481 1.56322 2.65724C1.27401 2.69967 0.9994 2.80858 0.762221 2.97492C0.525043 3.14126 0.332151 3.36022 0.199581 3.6136C0.0670118 3.86698 -0.0014042 4.14745 2.18438e-05 4.4317V6.05954C2.18508e-05 6.38172 0.131718 6.69071 0.366138 6.91853C0.600558 7.14635 0.918501 7.27434 1.25002 7.27434C1.58154 7.27434 1.89948 7.14635 2.1339 6.91853C2.36832 6.69071 2.50002 6.38172 2.50002 6.05954V5.31851L6.25002 6.53331C6.30801 7.3237 6.52458 8.09543 6.88752 8.80499L11.35 17.5394C11.4524 17.7448 11.6122 17.918 11.8112 18.0392C12.0101 18.1604 12.2402 18.2247 12.475 18.2247C12.7098 18.2247 12.9399 18.1604 13.1389 18.0392C13.3378 17.918 13.4977 17.7448 13.6 17.5394L18.0625 8.80499C18.4379 8.10567 18.6713 7.34266 18.75 6.55761C18.7563 6.47268 18.7563 6.38742 18.75 6.3025L21.25 5.37925V28.3026L13.75 31.0359V21.852C13.75 21.5298 13.6183 21.2208 13.3839 20.993C13.1495 20.7652 12.8315 20.6372 12.5 20.6372C12.1685 20.6372 11.8506 20.7652 11.6161 20.993C11.3817 21.2208 11.25 21.5298 11.25 21.852V31.0966L2.50002 28.2661V10.9187C2.50002 10.5966 2.36832 10.2876 2.1339 10.0598C1.89948 9.83193 1.58154 9.70395 1.25002 9.70395C0.918501 9.70395 0.600558 9.83193 0.366138 10.0598C0.131718 10.2876 2.18438e-05 10.5966 2.18438e-05 10.9187V28.7278C2.18438e-05 29.1025 0.1205 29.4678 0.344615 29.7728C0.56873 30.0777 0.885281 30.3069 1.25002 30.4285L11.8875 33.8664H11.975C12.1365 33.951 12.3166 33.9968 12.5 34C12.6915 33.997 12.8796 33.9513 13.05 33.8664H13.1375L22.5 30.4285L25.825 31.5097C26.14 31.6128 26.4841 31.59 26.7819 31.4465C27.0796 31.303 27.3064 31.0504 27.4125 30.7443C27.5186 30.4383 27.4952 30.1038 27.3475 29.8144C27.1999 29.5251 26.9399 29.3046 26.625 29.2015L23.75 28.2661V5.31851L32.5 8.149V31.0966L31.65 30.8172C31.3351 30.7141 30.9909 30.7368 30.6932 30.8804C30.3954 31.0239 30.1686 31.2765 30.0625 31.5825C29.9564 31.8886 29.9798 32.2231 30.1275 32.5124C30.2752 32.8018 30.5351 33.0222 30.85 33.1253L32.575 33.6842C32.7602 33.7459 32.9543 33.7787 33.15 33.7813C33.5397 33.7783 33.9191 33.6596 34.2375 33.4412C34.4727 33.2727 34.6641 33.0532 34.7965 32.8001C34.9289 32.547 34.9986 32.2673 35 31.9834V7.68737C35 7.31265 34.8795 6.94729 34.6554 6.64236C34.4313 6.33743 34.1147 6.10818 33.75 5.98665ZM15.85 7.72382L12.5 14.2595L9.15002 7.72382C8.85866 7.16254 8.72166 6.53755 8.75233 5.90961C8.78299 5.28166 8.98028 4.67209 9.32502 4.14015C9.6339 3.67087 10.0494 3.27666 10.5395 2.9878C11.0296 2.69893 11.5814 2.52311 12.1523 2.47384C12.7233 2.42457 13.2983 2.50316 13.8331 2.70357C14.3679 2.90399 14.8484 3.22089 15.2375 3.62993C15.5915 4.00474 15.8628 4.44597 16.0348 4.92647C16.2067 5.40698 16.2757 5.9166 16.2375 6.42398C16.1881 6.87604 16.0569 7.31607 15.85 7.72382Z" fill="#231F20"/>
<path d="M12.5 4.84375C12.2528 4.84375 12.0111 4.915 11.8055 5.04848C11.6 5.18197 11.4398 5.37169 11.3452 5.59367C11.2505 5.81564 11.2258 6.0599 11.274 6.29555C11.3223 6.5312 11.4413 6.74765 11.6161 6.91755C11.7909 7.08744 12.0137 7.20314 12.2561 7.25001C12.4986 7.29689 12.7499 7.27283 12.9784 7.18088C13.2068 7.08894 13.402 6.93323 13.5393 6.73346C13.6767 6.53369 13.75 6.29882 13.75 6.05855C13.75 5.73637 13.6183 5.42738 13.3839 5.19956C13.1495 4.97174 12.8315 4.84375 12.5 4.84375Z" fill="#231F20"/>
</svg>
