<svg width="40" height="40" viewBox="0 0 40 40" fill="none" xmlns="http://www.w3.org/2000/svg">
<path d="M37.7508 7.0979L25.8383 3.07682H25.7544C25.5723 2.98164 25.3718 2.92829 25.1672 2.92052C24.957 2.92019 24.7502 2.97396 24.566 3.07682H24.4541L20.4693 4.61136C20.1479 3.7753 19.6735 3.00871 19.0711 2.35217C18.3389 1.55503 17.4359 0.939885 16.4321 0.554397C15.4283 0.16891 14.3507 0.0234245 13.2827 0.129212C12.2147 0.234999 11.1849 0.589219 10.2733 1.16443C9.36165 1.73965 8.59254 2.52041 8.02555 3.44625C7.75417 3.893 7.5337 4.3697 7.36841 4.86712L2.71249 3.28995C2.4025 3.18365 2.07202 3.15408 1.74853 3.2037C1.42503 3.25333 1.11787 3.38072 0.852576 3.57528C0.587283 3.76983 0.371524 4.02594 0.22324 4.3223C0.0749555 4.61866 -0.00157065 4.94671 2.44332e-05 5.27918V7.18315C2.4441e-05 7.55999 0.147332 7.92139 0.40954 8.18786C0.671749 8.45433 1.02738 8.60402 1.3982 8.60402C1.76902 8.60402 2.12465 8.45433 2.38686 8.18786C2.64907 7.92139 2.79638 7.55999 2.79638 7.18315V6.31641L6.9909 7.73729C7.05577 8.66176 7.29801 9.5644 7.70397 10.3943L12.6955 20.6104C12.8099 20.8507 12.9887 21.0533 13.2113 21.195C13.4338 21.3368 13.6912 21.412 13.9538 21.412C14.2165 21.412 14.4738 21.3368 14.6964 21.195C14.9189 21.0533 15.0977 20.8507 15.2122 20.6104L20.2037 10.3943C20.6236 9.57638 20.8847 8.68394 20.9727 7.76571C20.9797 7.66637 20.9797 7.56666 20.9727 7.46732L23.769 6.38746V33.1994L15.38 36.3964V25.6545C15.38 25.2777 15.2326 24.9163 14.9704 24.6498C14.7082 24.3834 14.3526 24.2337 13.9818 24.2337C13.611 24.2337 13.2553 24.3834 12.9931 24.6498C12.7309 24.9163 12.5836 25.2777 12.5836 25.6545V36.4674L2.79638 33.1568V12.8667C2.79638 12.4898 2.64907 12.1284 2.38686 11.8619C2.12465 11.5955 1.76902 11.4458 1.3982 11.4458C1.02738 11.4458 0.671749 11.5955 0.40954 11.8619C0.147332 12.1284 2.44332e-05 12.4898 2.44332e-05 12.8667V33.6967C2.44332e-05 34.135 0.134784 34.5623 0.385466 34.919C0.636148 35.2756 0.990223 35.5438 1.3982 35.6859L13.2967 39.707H13.3945C13.5752 39.806 13.7766 39.8596 13.9818 39.8633C14.1959 39.8598 14.4064 39.8063 14.597 39.707H14.6948L25.1672 35.6859L28.8863 36.9505C29.2386 37.0711 29.6236 37.0445 29.9566 36.8766C30.2896 36.7088 30.5434 36.4133 30.662 36.0553C30.7807 35.6973 30.7545 35.3061 30.5893 34.9677C30.4242 34.6293 30.1334 34.3714 29.7812 34.2508L26.5654 33.1568V6.31641L36.3526 9.62706V36.4674L35.4018 36.1406C35.0495 36.02 34.6646 36.0466 34.3316 36.2144C33.9986 36.3823 33.7448 36.6778 33.6261 37.0358C33.5075 37.3937 33.5336 37.785 33.6988 38.1234C33.864 38.4618 34.1547 38.7197 34.507 38.8403L36.4365 39.4939C36.6436 39.5661 36.8607 39.6045 37.0796 39.6075C37.5155 39.604 37.9399 39.4652 38.2961 39.2097C38.5591 39.0127 38.7732 38.7559 38.9213 38.4599C39.0694 38.1638 39.1473 37.8367 39.1489 37.5046V9.08712C39.1489 8.64883 39.0142 8.22149 38.7635 7.86484C38.5128 7.50819 38.1587 7.24005 37.7508 7.0979ZM17.7289 9.12975L13.9818 16.7741L10.2347 9.12975C9.90878 8.47326 9.75554 7.74226 9.78984 7.00778C9.82414 6.27331 10.0448 5.56035 10.4304 4.93817C10.7759 4.38928 11.2406 3.9282 11.7889 3.59033C12.3371 3.25247 12.9542 3.04682 13.5929 2.98919C14.2315 2.93156 14.8747 3.02349 15.4729 3.2579C16.0711 3.49231 16.6085 3.86297 17.0438 4.3414C17.4397 4.77979 17.7432 5.29587 17.9355 5.85788C18.1279 6.41989 18.2051 7.01596 18.1623 7.60941C18.107 8.13816 17.9603 8.65284 17.7289 9.12975Z" fill="#231F20"/>
<path d="M13.9819 5.76221C13.7054 5.76221 13.4351 5.84554 13.2051 6.00167C12.9752 6.1578 12.796 6.37971 12.6902 6.63934C12.5843 6.89897 12.5567 7.18466 12.6106 7.46028C12.6646 7.7359 12.7977 7.98908 12.9933 8.18779C13.1888 8.38651 13.4379 8.52183 13.7091 8.57666C13.9804 8.63148 14.2615 8.60334 14.517 8.4958C14.7725 8.38826 14.9908 8.20614 15.1445 7.97248C15.2981 7.73882 15.3801 7.46411 15.3801 7.18308C15.3801 6.80624 15.2328 6.44484 14.9706 6.17837C14.7084 5.91191 14.3527 5.76221 13.9819 5.76221Z" fill="#231F20"/>
</svg>
