<svg width="173" height="61" viewBox="0 0 173 61" fill="none" xmlns="http://www.w3.org/2000/svg">
<rect width="173" height="61" fill="#929292"/>
<g id="Landing Page">
<rect width="1440" height="1024" transform="translate(-73 -4618)" fill="white"/>
<g id="Frame 30">
<rect id="Rectangle 65" x="-73" y="-3594" width="1440" height="3802" fill="white"/>
<g id="&#240;&#159;&#166;&#134; emoji &#34;instagram emoji&#34;">
<path id="Vector" d="M43.6646 2H17.3655C8.87942 2 2 8.87942 2 17.3655V43.6645C2 52.1506 8.87942 59.03 17.3655 59.03H43.6645C52.1506 59.03 59.03 52.1506 59.03 43.6645V17.3655C59.0301 8.87942 52.1507 2 43.6646 2Z" stroke="black" stroke-width="3.79224" stroke-miterlimit="10"/>
<path id="Vector_2" d="M30.5149 44.2811C38.1176 44.2811 44.2808 38.1179 44.2808 30.5152C44.2808 22.9125 38.1176 16.7493 30.5149 16.7493C22.9122 16.7493 16.749 22.9125 16.749 30.5152C16.749 38.1179 22.9122 44.2811 30.5149 44.2811Z" stroke="black" stroke-width="3.79224" stroke-miterlimit="10"/>
<path id="Vector_3" d="M47.2306 16.7491C48.8598 16.7491 50.1805 15.4284 50.1805 13.7992C50.1805 12.1701 48.8598 10.8494 47.2306 10.8494C45.6015 10.8494 44.2808 12.1701 44.2808 13.7992C44.2808 15.4284 45.6015 16.7491 47.2306 16.7491Z" fill="black"/>
<path id="Vector_4" fill-rule="evenodd" clip-rule="evenodd" d="M172.033 30.5163C172.033 14.7687 159.264 2 143.516 2C127.769 2 115 14.7687 115 30.5163C115 44.7489 125.426 56.5462 139.061 58.6875V38.7618H131.818V30.5163H139.061V24.2338C139.061 17.0882 143.319 13.1379 149.832 13.1379C152.952 13.1379 156.216 13.6955 156.216 13.6955V20.7138H152.619C149.078 20.7138 147.971 22.9111 147.971 25.1695V30.5163H155.879L154.616 38.7618H147.972V58.6901C161.606 56.5501 172.033 44.7527 172.033 30.5163Z" fill="black"/>
</g>
</g>
</g>
</svg>
