<svg width="36" height="36" viewBox="0 0 36 36" fill="none" xmlns="http://www.w3.org/2000/svg">
<path d="M34.7392 34.4609L34.7456 34.4544C34.9159 34.2825 35.0505 34.0786 35.1417 33.8545C35.233 33.6304 35.279 33.3905 35.2772 33.1485C35.2753 32.9449 35.24 32.743 35.1728 32.5508L31.5252 22.088L11.2211 2.12237C9.97976 0.901819 8.30438 0.224376 6.56354 0.239074C4.8227 0.253772 3.159 0.959405 1.93844 2.20074C0.717873 3.44208 0.0404228 5.11744 0.0551202 6.85826C0.0698177 8.59908 0.775459 10.2628 2.01681 11.4833L22.3209 31.449L32.8433 34.92C33.1705 35.0293 33.522 35.0443 33.8573 34.9631C34.1926 34.8819 34.4983 34.7078 34.7392 34.4609ZM3.67467 9.79724C2.8855 9.01526 2.43836 7.95243 2.43117 6.84147C2.42397 5.73052 2.8573 4.66198 3.63627 3.86984C4.41524 3.0777 5.47637 2.62651 6.5873 2.61507C7.69823 2.60364 8.76843 3.03288 9.56354 3.80882L12.2336 6.43432L6.34468 12.4229L3.67467 9.79724ZM23.5852 29.376L8.03063 14.0807L13.9195 8.09217L29.474 23.3875L32.5983 32.3493L23.5852 29.376Z" fill="black"/>
</svg>
