<svg width="45" height="46" viewBox="0 0 45 46" fill="none" xmlns="http://www.w3.org/2000/svg">
<path d="M0.697832 45.2785L0.706097 45.287C0.925271 45.5127 1.18593 45.6918 1.47307 45.8142C1.76022 45.9366 2.0682 45.9997 2.3793 46C2.64107 45.9998 2.90104 45.9557 3.14883 45.8694L16.6399 41.1911L42.5284 14.7271C44.111 13.1091 45.0001 10.9147 45 8.62669C44.9999 6.33865 44.1107 4.14436 42.5279 2.52654C40.9451 0.908724 38.7985 -0.000100162 36.5602 8.27964e-09C34.3219 0.000100178 32.1754 0.909117 30.5927 2.52708L4.70423 28.9911L0.128095 42.7818C-0.0160532 43.2106 -0.0390619 43.6723 0.0617071 44.1139C0.162476 44.5555 0.382944 44.9591 0.697832 45.2785ZM32.7426 4.72452C33.7565 3.69599 35.1277 3.12007 36.5561 3.12288C37.9845 3.12568 39.3536 3.70698 40.3636 4.73948C41.3737 5.77198 41.9423 7.17154 41.945 8.63169C41.9477 10.0918 41.3843 11.4936 40.3781 12.53L36.9737 16.0101L29.338 8.20456L32.7426 4.72452ZM7.35578 30.6756L27.1884 10.402L34.8241 18.2075L14.9914 38.481L3.43574 42.4882L7.35578 30.6756Z" fill="black"/>
</svg>
