<svg width="37" height="36" viewBox="0 0 37 36" fill="none" xmlns="http://www.w3.org/2000/svg">
<path d="M27.0864 23.0087H25.3747L24.768 22.466C27.3681 19.6521 28.7115 15.8132 27.9748 11.7331C26.9564 6.14556 21.9294 1.68356 15.8624 1.00019C6.69679 -0.0449625 -1.01704 7.11031 0.109696 15.6122C0.84641 21.24 5.65672 25.903 11.6804 26.8476C16.0791 27.531 20.2177 26.2849 23.2512 23.873L23.8362 24.4357V26.0236L33.0452 34.5657C33.9336 35.3897 35.3853 35.3897 36.2737 34.5657C37.1621 33.7416 37.1621 32.395 36.2737 31.5709L27.0864 23.0087ZM14.0856 23.0087C8.69025 23.0087 4.33497 18.9688 4.33497 13.9641C4.33497 8.95943 8.69025 4.91951 14.0856 4.91951C19.4809 4.91951 23.8362 8.95943 23.8362 13.9641C23.8362 18.9688 19.4809 23.0087 14.0856 23.0087Z" fill="black"/>
</svg>
