<svg width="50" height="50" viewBox="0 0 50 50" fill="none" xmlns="http://www.w3.org/2000/svg">
<path d="M21.8828 0.235107L18.7656 7.61095C18.1421 7.7969 17.581 8.10681 17.0199 8.41672L9.601 5.31762L5.11222 9.78032L8.22943 17.1562C7.9177 17.776 7.66833 18.2718 7.41895 18.8917L0 21.9908V28.1889L7.41895 31.288C7.66833 31.9079 7.9177 32.4037 8.22943 33.0235L5.11222 40.3994L9.601 44.8621L17.0199 41.763C17.581 42.0109 18.1421 42.3208 18.7656 42.5687L21.8828 49.9446H28.1172L31.2344 42.5687C31.7955 42.3208 32.419 42.0729 32.98 41.763L40.399 44.8621L44.8878 40.3994L41.7706 33.0235C42.02 32.4657 42.3317 31.8459 42.581 31.288L50 28.1889V21.9908L42.581 18.8917C42.394 18.3338 42.0823 17.714 41.7706 17.1562L44.8878 9.78032L40.399 5.31762L32.98 8.41672C32.419 8.16879 31.7955 7.85888 31.2344 7.61095L28.1172 0.235107L21.8828 0.235107ZM25 15.7306C30.1746 15.7306 34.3516 19.8834 34.3516 25.0279C34.3516 30.1724 30.1746 34.3252 25 34.3252C19.8254 34.3252 15.6484 30.1724 15.6484 25.0279C15.6484 19.8834 19.8254 15.7306 25 15.7306Z" fill="black"/>
</svg>
