<svg width="224" height="39" viewBox="0 0 224 39" fill="none" xmlns="http://www.w3.org/2000/svg">
<path d="M203.84 7.23517L206.922 14.4434L207.642 16.1379H216.282L210.522 20.8448L209.082 22.0283L209.744 23.7228L212.624 32.1414L205.482 27.3807L203.84 26.3048L202.198 27.3807L194.941 32.1414L197.821 23.7228L198.426 22.0283L196.986 20.8448L191.226 16.1379H199.866L200.586 14.4434L203.84 7.23517ZM203.84 0L198.08 13.4483H183.68L195.2 22.8621L189.44 39L203.84 29.5862L218.24 39L212.48 22.8621L224 13.4483H209.6L203.84 0Z" fill="#FF900E"/>
<path d="M20.16 0L14.4 13.1426H0L11.52 22.3424L5.76 38.1135L20.16 28.9137L34.56 38.1135L28.8 22.3424L40.32 13.1426H25.92L20.16 0Z" fill="#FF900E"/>
<path d="M111.488 0L105.728 13.1426H91.328L102.848 22.3424L97.088 38.1135L111.488 28.9137L125.888 38.1135L120.128 22.3424L131.648 13.1426H117.248L111.488 0Z" fill="#FF900E"/>
<path d="M158.144 0L152.384 13.1426H137.984L149.504 22.3424L143.744 38.1135L158.144 28.9137L172.544 38.1135L166.784 22.3424L178.304 13.1426H163.904L158.144 0Z" fill="#FF900E"/>
<path d="M65.856 0L60.096 13.1426H45.696L57.216 22.3424L51.456 38.1135L65.856 28.9137L80.256 38.1135L74.496 22.3424L86.016 13.1426H71.616L65.856 0Z" fill="#FF900E"/>
</svg>
